<svg width="12" height="17" viewBox="0 0 12 17" fill="none" xmlns="http://www.w3.org/2000/svg">
<path d="M11.8117 5.87742C11.6889 6.13411 11.4434 6.29036 11.1644 6.29036H9.02152V15.9332C9.02152 16.1341 8.86527 16.2904 8.66438 16.2904H0.807233C0.673304 16.2904 0.539376 16.2122 0.483572 16.0895C0.427769 15.9555 0.438929 15.8105 0.528215 15.6988L2.31393 13.556C2.38089 13.4779 2.4925 13.4332 2.59295 13.4332H6.16438V6.29036H4.02152C3.7425 6.29036 3.49696 6.13411 3.3742 5.87742C3.26259 5.63188 3.29607 5.33054 3.47464 5.11849L7.04607 0.832773C7.31393 0.509111 7.87197 0.509111 8.13982 0.832773L11.7113 5.11849C11.8898 5.33054 11.9345 5.63188 11.8117 5.87742Z" fill="white"/>
</svg>
