<svg width="14" height="13" viewBox="0 0 14 13" fill="none" xmlns="http://www.w3.org/2000/svg">
<path d="M9.49902 5.5C9.49902 3.57031 7.92871 2 5.99902 2C4.06934 2 2.49902 3.57031 2.49902 5.5C2.49902 7.42969 4.06934 9 5.99902 9C7.92871 9 9.49902 7.42969 9.49902 5.5ZM13.499 12C13.499 12.5469 13.0459 13 12.499 13C12.2334 13 11.9756 12.8906 11.7959 12.7031L9.11621 10.0313C8.20215 10.6641 7.1084 11 5.99902 11C2.95996 11 0.499023 8.53906 0.499023 5.5C0.499023 2.46094 2.95996 0 5.99902 0C9.03809 0 11.499 2.46094 11.499 5.5C11.499 6.60938 11.1631 7.70313 10.5303 8.61719L13.21 11.2969C13.3896 11.4766 13.499 11.7344 13.499 12Z" fill="black"/>
</svg>
