<svg width="29" height="17" viewBox="0 0 29 17" fill="none" xmlns="http://www.w3.org/2000/svg">
<path fill-rule="evenodd" clip-rule="evenodd" d="M28.2683 1.73491C28.462 1.09791 28.2683 0.628906 27.3408 0.628906H24.2783C23.499 0.628906 23.1397 1.03375 22.9448 1.48058C22.9448 1.48058 21.3873 5.20927 19.1812 7.63127C18.4672 8.33357 18.1428 8.55637 17.7532 8.55637C17.5583 8.55637 17.2655 8.33357 17.2655 7.69537V1.73491C17.2655 0.969576 17.0508 0.628906 16.4022 0.628906H11.5862C11.0997 0.628906 10.8069 0.983576 10.8069 1.32075C10.8069 2.04525 11.9105 2.21325 12.0237 4.25258V8.68357C12.0237 9.65536 11.8452 9.83157 11.4555 9.83157C10.4172 9.83157 7.89136 6.08537 6.3922 1.79908C6.1017 0.964906 5.8077 0.628906 5.02486 0.628906H1.96003C1.08503 0.628906 0.910034 1.03375 0.910034 1.48058C0.910034 2.27625 1.94836 6.22887 5.74586 11.4568C8.27753 15.0268 11.8417 16.9623 15.0885 16.9623C17.0357 16.9623 17.276 16.5329 17.276 15.7921V13.0936C17.276 12.2338 17.4603 12.0623 18.0775 12.0623C18.5325 12.0623 19.3107 12.2863 21.1283 14.0071C23.205 16.0476 23.5468 16.9623 24.7158 16.9623H27.7783C28.6533 16.9623 29.092 16.5329 28.84 15.6836C28.5623 14.8389 27.5707 13.6128 26.2558 12.1579C25.5418 11.3296 24.4708 10.4371 24.1453 9.99027C23.6915 9.41737 23.821 9.16187 24.1453 8.65207C24.1453 8.65207 27.8787 3.48841 28.2672 1.73491H28.2683Z" fill="white"/>
</svg>
