<svg width="43" height="30" viewBox="0 0 43 30" fill="none" xmlns="http://www.w3.org/2000/svg">
<path d="M41.7969 4.76758C42.7344 8.04883 42.7344 15.0801 42.7344 15.0801C42.7344 15.0801 42.7344 22.0332 41.7969 25.3926C41.3281 27.2676 39.8438 28.6738 38.0469 29.1426C34.6875 30.002 21.4062 30.002 21.4062 30.002C21.4062 30.002 8.04688 30.002 4.6875 29.1426C2.89062 28.6738 1.40625 27.2676 0.9375 25.3926C0 22.0332 0 15.0801 0 15.0801C0 15.0801 0 8.04883 0.9375 4.76758C1.40625 2.89258 2.89062 1.4082 4.6875 0.939453C8.04688 0.00195312 21.4062 0.00195312 21.4062 0.00195312C21.4062 0.00195312 34.6875 0.00195312 38.0469 0.939453C39.8438 1.4082 41.3281 2.89258 41.7969 4.76758Z" fill="#FF0000"/>
<path d="M17.0312 21.4082L28.125 15.0801L17.0312 8.75195V21.4082Z" fill="white"/>
<path d="M17.0312 21.4082L28.125 15.0801L17.0312 8.75195V21.4082Z" fill="white"/>
</svg>
